# xmcd CD database file
#
# Track frame offsets:
#	150
#	13875
#	24975
#	36750
#	49800
#	63525
#	74925
#	87900
#	99150
#
# Disc length: 1474 seconds
#
# Revision: 2
# Processed by: cddbd v1.5.2PL0 Copyright (c) Steve Scherf et al.
# Submitted via: CDex 1.51
#
DISCID=7705c009
DTITLE=Bobby Hackett - Goodnight My Love
DYEAR=1900
DGENRE=Jazz
TTITLE0=The Eyes of Love
TTITLE1=My Funny Valentine
TTITLE2=Wrap Your Troubles in Dreams
TTITLE3=The Lamp Is Low
TTITLE4=On The Street Where You Live
TTITLE5=Goodnight My Love
TTITLE6=Close Your Eyes
TTITLE7=All Through the Night
TTITLE8=You Stepped Out Of  A Dream
EXTD=
EXTT0=
EXTT1=
EXTT2=
EXTT3=
EXTT4=
EXTT5=
EXTT6=
EXTT7=
EXTT8=
PLAYORDER=
